<svg width="200" height="14" viewBox="0 0 200 14" fill="none" xmlns="http://www.w3.org/2000/svg">
<path d="M18.2894 3.00604C16.2929 3.35195 14.9837 4.12239 12.3162 6.46515C10.5488 8.02175 9.58324 8.50917 8.25768 8.50917C7.01394 8.50917 6.26115 8.13181 4.77194 6.77961C4.11734 6.18213 3.33182 5.63182 3.00452 5.52176C1.33529 5.00289 -0.284841 6.35509 0.0424582 7.9903C0.189743 8.72929 1.8917 10.4588 3.5282 11.5123C5.86839 13.006 8.43769 13.3676 10.9743 12.5343C12.4798 12.0469 13.5927 11.3393 15.5074 9.68841C18.1912 7.36137 19.2549 6.9054 20.6132 7.55005C21.006 7.72301 22.1352 8.60351 23.1171 9.48401C24.1153 10.3645 25.3427 11.3393 25.8664 11.6695C28.7303 13.462 32.3306 13.3834 35.2599 11.4966C35.7836 11.1507 36.9291 10.2544 37.8292 9.48401C41.0531 6.66955 41.9204 6.701 45.3734 9.76702C48.0082 12.1255 49.7429 12.9274 52.214 12.9431C53.6868 12.9588 54.8979 12.6915 56.1743 12.0783C57.3199 11.5437 57.909 11.1192 60.0037 9.32677C63.2113 6.60666 63.9477 6.6381 67.4007 9.73558C69.9209 11.984 70.9846 12.5658 73.2757 12.8959C75.3704 13.2104 77.5633 12.7073 79.4453 11.4809C80.6727 10.679 83.062 8.36766 83.2584 7.7859C83.5202 7.04691 83.2256 6.13496 82.5383 5.5532C81.3109 4.51547 80.3618 4.7356 78.3652 6.49659C76.6796 8.00602 75.6814 8.50917 74.4213 8.50917C73.1448 8.50917 72.3102 8.08464 70.6737 6.59093C68.6772 4.76704 67.7935 4.13811 66.4024 3.49346C65.2569 2.95887 65.0769 2.92743 63.6204 2.92743C62.3276 2.92743 61.9021 2.99032 61.0838 3.32051C59.6601 3.90226 58.5145 4.68843 56.5834 6.38653C54.5706 8.16326 53.7687 8.58778 52.4922 8.57206C51.1503 8.55634 50.332 8.11609 48.3519 6.32364C45.3571 3.60352 43.4915 2.72302 41.1349 2.89598C38.8274 3.05321 37.5346 3.72931 34.4907 6.32364C32.3633 8.13181 31.6923 8.49344 30.3831 8.50917C29.1067 8.50917 28.1738 8.00602 26.2264 6.29219C24.3935 4.6727 23.0843 3.7922 21.8079 3.33623C20.7769 2.95887 19.2877 2.81736 18.2894 3.00604Z" fill="#2C3E50"/>
<path d="M134.936 3.00604C132.94 3.35195 131.631 4.12239 128.963 6.46515C127.196 8.02175 126.23 8.50917 124.905 8.50917C123.661 8.50917 122.908 8.13181 121.419 6.77961C120.764 6.18213 119.979 5.63182 119.651 5.52176C117.982 5.00289 116.362 6.35509 116.689 7.9903C116.837 8.72929 118.539 10.4588 120.175 11.5123C122.515 13.006 125.085 13.3676 127.621 12.5343C129.127 12.0469 130.24 11.3393 132.154 9.68841C134.838 7.36137 135.902 6.9054 137.26 7.55005C137.653 7.72301 138.782 8.60351 139.764 9.48401C140.762 10.3645 141.99 11.3393 142.513 11.6695C145.377 13.462 148.978 13.3834 151.907 11.4966C152.431 11.1507 153.576 10.2544 154.476 9.48401C157.7 6.66955 158.567 6.701 162.02 9.76702C164.655 12.1255 166.39 12.9274 168.861 12.9431C170.334 12.9588 171.545 12.6915 172.821 12.0783C173.967 11.5437 174.556 11.1192 176.651 9.32677C179.858 6.60666 180.595 6.6381 184.048 9.73558C186.568 11.984 187.632 12.5658 189.923 12.8959C192.017 13.2104 194.21 12.7073 196.092 11.4809C197.32 10.679 199.709 8.36766 199.905 7.7859C200.167 7.04691 199.873 6.13496 199.185 5.5532C197.958 4.51547 197.009 4.7356 195.012 6.49659C193.327 8.00602 192.328 8.50917 191.068 8.50917C189.792 8.50917 188.957 8.08464 187.321 6.59093C185.324 4.76704 184.44 4.13811 183.049 3.49346C181.904 2.95887 181.724 2.92743 180.267 2.92743C178.975 2.92743 178.549 2.99032 177.731 3.32051C176.307 3.90226 175.161 4.68843 173.23 6.38653C171.218 8.16326 170.416 8.58778 169.139 8.57206C167.797 8.55634 166.979 8.11609 164.999 6.32364C162.004 3.60352 160.138 2.72302 157.782 2.89598C155.474 3.05321 154.182 3.72931 151.138 6.32364C149.01 8.13181 148.339 8.49344 147.03 8.50917C145.754 8.50917 144.821 8.00602 142.873 6.29219C141.041 4.6727 139.731 3.7922 138.455 3.33623C137.424 2.95887 135.935 2.81736 134.936 3.00604Z" fill="#2C3E50"/>
<circle cx="99.8071" cy="6.57166" r="6.57166" fill="#2C3E50"/>
</svg>
